<?xml version="1.0" encoding="UTF-8" standalone="no"?>
<!-- Created with Inkscape (http://www.inkscape.org/) -->
<svg
   xmlns:dc="http://purl.org/dc/elements/1.1/"
   xmlns:cc="http://web.resource.org/cc/"
   xmlns:rdf="http://www.w3.org/1999/02/22-rdf-syntax-ns#"
   xmlns:svg="http://www.w3.org/2000/svg"
   xmlns="http://www.w3.org/2000/svg"
   xmlns:xlink="http://www.w3.org/1999/xlink"
   xmlns:sodipodi="http://sodipodi.sourceforge.net/DTD/sodipodi-0.dtd"
   xmlns:inkscape="http://www.inkscape.org/namespaces/inkscape"
   id="svg2"
   sodipodi:version="0.32"
   inkscape:version="0.45+devel"
   width="1024"
   height="768"
   version="1.0"
   sodipodi:docname="torn.svg"
   inkscape:output_extension="org.inkscape.output.svg.inkscape">
  <sodipodi:namedview
     inkscape:window-height="783"
     inkscape:window-width="808"
     inkscape:pageshadow="2"
     inkscape:pageopacity="0.0"
     guidetolerance="10.0"
     gridtolerance="10.0"
     objecttolerance="10.0"
     borderopacity="1.0"
     bordercolor="#666666"
     pagecolor="#ffffff"
     id="base"
     showguides="true"
     inkscape:guide-bbox="true"
     inkscape:zoom="1"
     inkscape:cx="545.56169"
     inkscape:cy="280.61027"
     inkscape:window-x="251"
     inkscape:window-y="148"
     inkscape:current-layer="svg2"
     showborder="true"
     inkscape:showpageshadow="false"
     width="1024px"
     height="768px" />
  <metadata
     id="metadata7">
    <rdf:RDF>
      <cc:Work
         rdf:about="">
        <dc:format>image/svg+xml</dc:format>
        <dc:type
           rdf:resource="http://purl.org/dc/dcmitype/StillImage" />
      </cc:Work>
    </rdf:RDF>
  </metadata>
  <defs
     id="defs5">
    <linearGradient
       id="linearGradient2762"
       inkscape:collect="always">
      <stop
         id="stop2764"
         offset="0"
         style="stop-color:#ffffff;stop-opacity:1;" />
      <stop
         id="stop2766"
         offset="1"
         style="stop-color:#ffffff;stop-opacity:1" />
    </linearGradient>
    <linearGradient
       inkscape:collect="always"
       id="linearGradient2733">
      <stop
         style="stop-color:#000000;stop-opacity:0.3025641"
         offset="0"
         id="stop2735" />
      <stop
         style="stop-color:#000000;stop-opacity:0;"
         offset="1"
         id="stop2737" />
    </linearGradient>
    <linearGradient
       inkscape:collect="always"
       id="linearGradient2725">
      <stop
         style="stop-color:#ffffff;stop-opacity:1;"
         offset="0"
         id="stop2727" />
      <stop
         style="stop-opacity:1;stop-color:#dcdcdc"
         offset="1"
         id="stop2729" />
    </linearGradient>
    <linearGradient
       inkscape:collect="always"
       id="linearGradient2143">
      <stop
         style="stop-color:#8f8f8f;stop-opacity:1"
         offset="0"
         id="stop2145" />
      <stop
         style="stop-color:#ffffff;stop-opacity:1"
         offset="1"
         id="stop2147" />
    </linearGradient>
    <filter
       id="filter2751"
       inkscape:collect="always">
      <feGaussianBlur
         stdDeviation="1.4700304"
         id="feGaussianBlur2753"
         inkscape:collect="always" />
    </filter>
    <linearGradient
       inkscape:collect="always"
       xlink:href="#linearGradient2725"
       id="linearGradient2731"
       x1="803"
       y1="470.9584"
       x2="803"
       y2="514.20001"
       gradientUnits="userSpaceOnUse" />
    <radialGradient
       inkscape:collect="always"
       xlink:href="#linearGradient2733"
       id="radialGradient2741"
       cx="576.40662"
       cy="325.39877"
       fx="576.40662"
       fy="325.39877"
       r="545.62042"
       gradientTransform="matrix(1.3783241,0,0,4.1387802e-2,-234.68486,451.96266)"
       gradientUnits="userSpaceOnUse" />
    <radialGradient
       inkscape:collect="always"
       xlink:href="#linearGradient2143"
       id="radialGradient2744"
       cx="451.43988"
       cy="144.20995"
       fx="451.43988"
       fy="144.20995"
       r="531.5"
       gradientTransform="matrix(0.9972387,0,0,0.1394471,18.806724,452.89035)"
       gradientUnits="userSpaceOnUse" />
    <radialGradient
       inkscape:collect="always"
       xlink:href="#linearGradient2733"
       id="radialGradient2756"
       gradientUnits="userSpaceOnUse"
       gradientTransform="matrix(1.3783241,0,0,4.1387802e-2,-234.68486,451.96266)"
       cx="576.40662"
       cy="325.39877"
       fx="576.40662"
       fy="325.39877"
       r="545.62042" />
    <linearGradient
       inkscape:collect="always"
       xlink:href="#linearGradient2762"
       id="linearGradient2758"
       gradientUnits="userSpaceOnUse"
       x1="803"
       y1="470.9584"
       x2="803"
       y2="514.20001" />
    <radialGradient
       inkscape:collect="always"
       xlink:href="#linearGradient2143"
       id="radialGradient2760"
       gradientUnits="userSpaceOnUse"
       gradientTransform="matrix(0.9972387,0,0,3.7894586e-2,18.806724,467.53523)"
       cx="451.43988"
       cy="144.20995"
       fx="451.43988"
       fy="144.20995"
       r="531.5" />
    <filter
       inkscape:collect="always"
       x="-0.0055445586"
       width="1.0110891"
       y="-0.2234783"
       height="1.4469566"
       id="filter2739">
      <feGaussianBlur
         inkscape:collect="always"
         stdDeviation="2.5209204"
         id="feGaussianBlur2741" />
    </filter>
  </defs>
  <rect
     style="stroke-opacity:1;stroke-dasharray:none;stroke-miterlimit:4;stroke-linejoin:round;stroke-linecap:round;stroke-width:0.35433071999999999;stroke:#2e3436;fill-opacity:1;fill:#ffffff;opacity:1"
     id="rect2158"
     width="1038"
     height="776"
     x="-16"
     y="-8"
     rx="7.9999995"
     ry="7.9999995" />
  <g
     id="g2133">
    <path
       d="M 712.0384,449.97245 C 705.98601,450.3519 706.99089,458.61472 702.31733,462.0024 C 688.89046,466.86998 700.57225,457.58311 692.59627,456.17873 C 683.16962,454.51891 682.49606,472.41183 673.15414,456.83857 C 661.15734,453.24333 662.11753,459.17717 643.99094,462.30564 C 640.82826,462.85148 637.15824,458.06923 634.26988,457.13136 C 621.47301,452.97612 640.03154,482.54658 624.54881,459.98873 C 622.78422,460.52696 616.3398,462.37378 614.82775,461.61009 C 611.43739,459.89773 609.41542,453.79923 605.10668,454.51137 C 597.83124,455.71383 587.10055,473.14665 566.22242,455.93595 C 559.20678,454.49243 557.86085,468.68032 556.50136,468.40162 C 552.01592,467.48208 548.89628,463.48569 546.78029,461.03282 C 522.44635,466.66863 553.55145,453.87371 537.05923,457.90804 C 535.64273,459.27402 529.88269,461.36313 527.33816,461.99293 C 525.48583,462.45141 520.86853,458.1967 517.6171,459.64198 C 516.13515,460.30071 509.01545,463.3792 507.896,462.50179 C 501.52562,457.50875 503.44181,451.22459 498.17494,458.11488 C 496.20868,459.13924 489.18604,459.84172 488.45387,460.33942 C 488.40289,459.82818 481.57528,459.23292 478.73281,458.87663 C 476.55124,458.60318 471.23898,462.02977 469.01174,462.05018 C 461.24522,462.12136 464.96251,451.8696 459.29068,463.68482 C 458.39907,464.41718 450.29083,466.68518 449.56961,465.88413 C 446.85843,462.87283 442.44158,459.07215 439.84855,456.02902 C 437.5854,453.37304 433.71014,462.40472 430.12749,464.49346 C 427.27005,466.15938 422.25245,460.22443 420.40642,458.11788 C 419.64787,443.98403 411.45876,465.57717 410.68536,464.70718 C 404.98405,458.29379 407.31701,454.88026 400.96429,458.82636 C 400.11166,457.8907 392.02328,455.07501 391.24323,456.02285 C 389.70625,457.89042 382.31793,459.41381 381.52216,460.67039 C 380.90345,459.33905 374.36707,457.87718 371.8011,456.45397 C 368.88334,454.83564 365.72729,461.63062 362.08003,462.61359 C 336.86353,475.1585 383.98055,440.00132 352.35897,460.98376 C 350.4341,461.06935 344.27441,461.84313 342.6379,461.24922 C 342.46745,461.18736 323.36241,461.13916 323.19577,461.07842 C 321.27812,461.4116 320.12097,461.43119 313.47471,460.93584 C 309.67711,460.6528 307.52522,455.26422 303.75364,455.67801 C 287.48411,457.46299 310.12974,471.40974 294.03258,456.42696 C 281.51824,473.17325 296.06283,453.57698 284.31151,455.23392 C 279.83894,455.86455 279.11039,461.54768 274.59045,462.06884 C 270.67954,462.51978 268.32064,458.14333 264.86938,457.12949 C 262.66173,456.48097 257.67661,457.53224 255.14832,457.73154 C 251.8347,459.4503 247.16973,460.67004 245.42724,461.60606 C 248.05262,459.89698 246.80854,457.99227 235.70617,461.25904 C 232.60099,462.17272 229.42816,465.65664 225.98511,465.72748 C 222.49041,465.7994 219.75779,461.55386 216.26404,461.68624 C 199.18866,462.33324 224.34352,476.16358 206.54298,460.44903 C 198.96262,460.94411 203.81853,458.76041 196.82191,457.61833 C 195.19888,462.59197 195.52404,470.97554 187.10085,472.54612 C 177.14672,459.00683 190.1932,457.82896 177.37978,462.92416 C 177.92657,472.95519 170.80531,463.52449 167.65872,465.57174 C 164.12333,467.87195 161.22558,471.92668 157.93765,474.33422 C 157.81284,474.42561 148.33711,474.48552 148.21659,474.5708 L 138.49552,474.57144 C 136.86474,468.70271 145.94799,452.77253 128.77446,463.23779 C 117.18149,461.76713 125.98313,472.33379 119.05339,472.87094 C 114.45456,473.22741 113.39734,466.89716 109.33233,465.55898 C 97.94688,461.81094 106.3381,480.06585 93.177114,461.18872 C 84.303631,480.84422 89.153551,465.79157 77.749538,462.23127 C 69.84029,459.76202 72.3296,469.16424 70.769188,472.37383 L 66.47148,472.3474 C 65.379437,471.65581 64.040634,470.61346 62.381065,469.10115 C 61.093728,468.92392 53.509576,468.00567 52.334828,467.37976 C 50.416054,466.35744 50.053334,462.53658 48.142492,463.54508 C 44.886407,465.26358 44.080223,469.78661 43.238511,472.09045 L 40.70388,472.0902 C 40.056065,471.06712 39.252165,469.46557 38.171838,466.98716 C 34.785522,461.94788 34.610818,469.87923 33.13504,469.02898 C 25.77016,464.78579 33.830297,459.45374 23.649197,471.10705 C 20.194403,461.77043 15.647512,458.9239 10.352199,468.9409 C 2.243323,474.02109 5.8836199,454.68223 0.40667414,465.93627 C -0.56553622,467.93397 -1.3382281,470.07245 -1.9439703,472.22284 L -34.499577,472.61516 C -38.758195,472.66443 -42.191611,474.63432 -42.197614,477.03271 L -42.240829,490.87776 C -42.249798,493.27757 -38.828462,495.17123 -34.569864,495.12295 L 1041.3763,494.59018 C 1045.5998,494.59018 1049,492.63942 1049,490.21627 L 1049,476.2325 C 1049,473.80936 1045.5998,471.85859 1041.3763,471.85859 L 1032.2041,471.85859 C 1031.9808,463.08457 1030.2179,451.70378 1029.1367,459.26647 C 1027.4923,470.76834 1029.9046,458.96684 1026.1885,456.89157 C 1024.4389,455.91459 1022.8761,458.99947 1020.8281,459.76196 C 1007.0601,464.88779 1015.7599,454.70871 999.71397,465.22936 C 996.91426,464.62475 994.11579,464.00582 991.31609,463.4012 C 988.57099,461.54346 986.98573,458.80756 983.09679,457.83128 C 980.23038,457.11169 976.87214,459.69236 973.95427,459.04436 C 955.88272,455.0311 964.78511,444.12564 948.04562,459.42025 C 932.16751,446.47748 947.95873,455.36013 931.72615,463.11075 C 926.36947,465.66842 923.13392,454.82736 916.18076,455.09758 C 885.87999,456.2752 900.51161,460.28357 906.4597,461.43635 C 904.88668,461.17408 900.98447,460.74987 896.73863,460.10368 C 881.6027,448.9304 902.20133,456.14762 887.01757,457.9338 C 884.3504,458.24755 879.76286,455.58068 877.2965,456.24231 C 864.31627,459.72451 885.67309,466.5203 867.57544,456.08855 C 857.8444,480.00486 871.42814,451.61475 857.85437,453.61113 C 847.72211,455.10134 848.03224,459.17661 848.13331,459.43733 C 847.863,459.29733 843.39557,458.14894 838.41224,455.26844 C 820.46209,447.16349 848.61586,455.01912 828.69118,459.11271 C 825.32338,459.80464 822.44433,455.74026 818.97011,455.25136 C 806.45989,453.49086 828.48308,459.36202 809.24905,452.07342 C 805.75947,452.48357 803.01756,452.89346 799.52798,453.30359 C 795.91455,455.1408 794.53047,458.24878 789.80692,458.82225 C 785.93182,459.29271 783.91003,455.34279 780.08585,455.93477 C 775.31204,456.67375 775.30701,462.15518 770.36479,462.06852 C 765.09745,461.97614 764.87707,457.35947 760.64372,455.5589 C 757.59553,454.26239 754.40311,453.82906 750.92266,452.96188 C 725.54671,476.58691 775.09699,443.72745 741.20159,463.4012 C 738.00768,464.60073 731.72884,460.2593 731.48053,460.10379 C 727.15903,457.39754 727.81541,451.30004 721.75946,450.12888 C 721.01905,449.9857 712.66464,449.93307 712.0384,449.97245 z M 332.91684,461.07842 C 343.08066,459.31555 299.26333,448.85778 332.91684,461.07842 z M 663.43307,470.54336 C 663.61146,471.00309 682.71474,471.25446 682.8752,471.66918 L 653.71201,471.66312 C 654.01602,471.29072 663.11562,470.94365 663.43307,470.54336 z M 585.66455,470.42805 C 586.08545,470.36777 595.10976,470.75663 595.38562,471.3856 L 575.94349,471.37133 C 576.47771,470.77347 585.35713,470.47208 585.66455,470.42805 z"
       sodipodi:nodetypes="ccscsscsscsccsssccsscssscscscsccscsscsssccsssccccsscccsscscccsscccsccsccccccccccsssccsscssccsscsccssccssssccssccccccccccc"
       id="path2745"
       style="opacity:1;fill:url(#radialGradient2741);fill-opacity:1;stroke-width:0.39999998;stroke-linecap:round;stroke-linejoin:round;stroke-miterlimit:4;stroke-dasharray:none;stroke-opacity:0.11111109;filter:url(#filter2751)"
       transform="matrix(0.9587741,0,0,1.1931559,23.245973,-79.915403)" />
    <path
       sodipodi:nodetypes="ccscsscssccsccsssccsscssscscscsccscsscsssccsssccccsscccsscscccsscccsccsccccccccccsssccsscssccsscsccssccssssccssc"
       d="M 709.01755,465.51875 C 703.12748,465.82554 704.01448,472.33764 699.46582,475.01631 C 686.39012,478.88715 697.68683,471.54927 689.9141,470.46231 C 680.72454,469.17723 679.92639,483.26906 670.81065,471.01309 C 659.10565,468.21261 659.82854,472.82638 642.15546,475.35214 C 639.0703,475.79306 635.42289,472.01219 632.60373,471.28176 C 620.10975,468.04467 638.18312,491.33944 623.052,473.59234 C 621.3291,474.02477 614.97783,475.49255 613.50028,474.8954 C 610.18692,473.55632 600.49509,473.87882 596.32472,474.70634 L 584.76844,476.99944 L 573.29229,471.94368 C 566.42785,470.83422 557.52153,480.76412 556.18991,480.55094 C 551.79607,479.84751 548.71362,476.67984 546.63819,474.74762 C 522.80199,479.34992 553.24857,469.1613 537.08646,472.45049 C 535.69929,473.54205 530.0288,475.2012 527.53473,475.71485 C 525.71909,476.08877 521.1697,472.72329 517.983,473.88788 C 516.53054,474.41868 509.53014,476.86191 508.43124,476.17159 C 502.17668,472.24249 504.03779,467.22052 498.87949,472.71916 C 496.95221,473.54281 490.04523,474.10683 489.32773,474.50582 C 489.27706,474.10022 482.56459,473.63199 479.77597,473.36397 C 477.63565,473.15825 472.40901,475.87517 470.22421,475.90292 C 462.60542,475.99971 466.22203,467.82048 460.67246,477.23285 C 459.79891,477.81887 451.82946,479.62489 451.12071,478.99265 C 448.45607,476.61574 444.11624,473.59225 441.56895,471.18772 C 439.34541,469.08881 435.52893,476.25505 432.01719,477.93139 C 429.21653,479.2683 424.27936,474.55828 422.46543,472.8938 C 421.70894,461.66353 413.67364,478.86066 412.91367,478.17319 C 407.31049,473.10448 409.59009,470.36102 403.36192,473.52517 C 402.52421,472.78549 394.57444,470.55196 393.81016,471.30863 C 392.30443,472.79939 385.03743,474.01454 384.2584,475.01631 C 383.64958,473.96117 377.22554,472.8053 374.70664,471.68477 C 371.84221,470.41055 368.73155,475.80584 365.15488,476.60147 C 340.44434,486.65243 386.60492,458.59274 355.60313,475.39243 C 353.71556,475.46639 347.65699,476.08789 346.05138,475.62081 C 345.88415,475.57216 336.66311,475.53425 336.49962,475.48647 C 334.61969,475.75666 323.91229,475.78436 317.3961,475.40588 C 313.67497,475.18973 311.52975,470.90576 307.84434,471.22803 C 292.00541,472.61307 313.80391,483.65718 298.29259,471.59073 C 286.47568,484.62343 299.98196,468.9839 288.74083,470.12647 C 284.47001,470.56057 283.50013,475.00125 279.18907,475.3387 C 275.46139,475.63049 272.91895,472.08652 269.63731,471.21459 C 267.53849,470.65696 262.49135,471.43914 260.08557,471.55044 C 256.94911,472.84379 252.18166,473.7611 250.53382,474.46551 C 253.19551,473.0454 251.5195,471.58655 240.98206,473.95504 C 238.03585,474.61727 234.70296,477.32558 231.4303,477.31345 C 228.10829,477.30113 225.19976,473.86498 221.87854,473.90132 C 205.63498,474.07903 229.13995,485.12874 212.32678,472.20868 C 205.07501,472.47925 209.48418,470.64153 202.77503,469.62942 C 201.28416,473.51351 201.34443,480.12549 193.22328,481.27636 C 183.62943,470.40018 190.84467,469.48641 178.36405,473.47144 C 178.90895,481.43573 168.20372,473.91976 165.12375,475.54021 C 161.65962,477.36278 163.81453,480.61233 160.58504,482.52568 C 160.46239,482.59836 160.35656,482.64595 160.23813,482.71375 L 153.84925,482.71375 C 152.17849,478.09818 156.51547,465.51778 139.51039,473.92819 C 128.04209,472.81498 134.23747,481.33031 127.36863,481.80027 C 122.8082,482.11229 124.84918,477.17372 120.80629,476.14472 C 109.48125,473.26231 117.61807,487.83816 104.21254,473.16247 C 95.029026,489.09987 99.733937,477.18002 88.399336,474.43866 C 80.54576,472.53921 82.824479,480.12028 81.22991,482.71375 L 76.980292,482.71375 C 75.894476,482.17343 74.560696,481.35823 72.904127,480.17481 C 71.632646,480.03933 64.150368,479.33626 62.988349,478.84488 C 61.090641,478.04236 60.681952,475.04042 58.796549,475.84919 C 55.587015,477.22594 54.734774,480.86355 53.882023,482.71375 L 51.395851,482.71375 C 50.748673,481.90825 49.940915,480.64786 48.851862,478.69711 C 45.490059,474.71771 45.294931,481.04133 43.85061,480.36288 C 36.645955,476.97854 44.451406,472.80338 34.513012,482.04207 C 31.118886,474.62207 26.735014,472.30967 21.61961,480.22854 C 13.808515,484.18296 17.290213,468.85442 12.021831,477.74332 C 11.086999,479.32058 10.346637,481.01176 9.7669316,482.71375 L -21.599304,482.71375 C -25.699289,482.71375 -29,484.24755 -29,486.15274 L -29,510.56101 C -29,512.46622 -25.699289,514 -21.599304,514 L 1025.5993,514 C 1029.6993,514 1033,512.46622 1033,510.56101 L 1033,486.15274 C 1033,484.24755 1029.6993,482.71375 1025.5993,482.71375 L 1016.6954,482.71375 C 1016.4786,475.81517 1014.7673,466.86702 1013.7177,472.81318 C 1012.1214,481.85654 1014.4631,472.57761 1010.8557,470.94592 C 1009.1573,470.17776 1007.6402,472.60326 1005.6521,473.20277 C 992.28686,477.23295 1000.7322,469.22964 985.15561,477.50152 C 982.43779,477.02613 979.72118,476.53951 977.00337,476.06412 C 974.33857,474.60348 972.79968,472.45237 969.02449,471.68477 C 966.24192,471.11899 962.98191,473.14805 960.14939,472.63855 C 942.60644,469.48312 951.24843,460.90868 934.99858,472.93409 C 919.58491,462.75783 934.91333,469.74183 919.15556,475.83575 C 913.95557,477.84673 916.35361,469.32293 909.60383,469.53539 C 880.18937,470.4613 894.278,473.61288 900.0521,474.51926 C 898.52509,474.31306 894.62202,473.97952 890.50037,473.47144 C 875.80718,464.68645 895.68828,470.36099 880.94865,471.76537 C 878.3595,472.01205 873.79114,469.91523 871.39693,470.43544 C 858.79637,473.17333 879.41348,478.51652 861.8452,470.31454 C 852.39879,489.11877 865.4702,466.79701 852.29347,468.36667 C 842.45758,469.53835 842.64363,472.74253 842.74174,472.94752 C 842.47934,472.83745 838.02758,471.93452 833.19001,469.66973 C 815.76491,463.29721 842.98016,469.47371 823.63828,472.69229 C 820.36899,473.23632 817.45916,470.04071 814.08656,469.6563 C 801.94227,468.27211 823.20626,472.88831 804.53483,467.15764 C 801.14732,467.48012 798.37061,467.8024 794.9831,468.12487 C 791.47537,469.56937 790.01676,472.01302 785.43137,472.46393 C 781.66962,472.83381 779.59197,469.7282 775.87965,470.19364 C 771.24547,470.77465 771.12557,475.08444 766.32792,475.01631 C 761.21465,474.94366 760.88571,471.31381 756.77619,469.89811 C 753.81716,468.87872 750.60311,468.53801 747.22447,467.85619 C 722.59078,486.43141 770.57668,460.59563 737.67274,476.06412 C 734.57198,477.00762 728.36249,473.60701 728.12101,473.48487 C 723.9179,471.35923 724.46021,466.55589 718.56928,465.63966 C 717.84895,465.52761 709.62687,465.48702 709.01755,465.51875 z"
       id="path2737"
       style="opacity:1;fill:url(#linearGradient2731);fill-opacity:1;stroke:url(#radialGradient2744);stroke-width:1;stroke-linecap:round;stroke-linejoin:round;stroke-miterlimit:4;stroke-dasharray:none;stroke-opacity:1" />
  </g>
  <g
     id="g2137"
     transform="matrix(-1,0,0,1,1004,26.213203)">
    <path
       style="opacity:1;fill:#fefefe;fill-opacity:1;stroke-width:0.39999998;stroke-linecap:round;stroke-linejoin:round;stroke-miterlimit:4;stroke-dasharray:none;stroke-opacity:0.11111109"
       id="path2141"
       d="M 701.20468,448.00998 C 695.08167,448.4166 696.00375,454.91367 691.2752,457.66943 C 677.68238,461.76189 689.42586,454.23254 681.34573,453.27733 C 671.79274,452.148 670.96303,466.25336 661.48678,454.15189 C 649.31887,451.5498 650.07035,456.15132 631.69833,458.97662 C 628.49116,459.46983 624.6995,455.75079 621.76885,455.06814 C 608.78076,452.04281 627.56889,475.03125 611.83937,457.54061 C 610.04833,458.00224 603.44588,459.57767 601.9099,459.00556 C 598.4655,457.72264 588.39038,458.20941 584.05508,459.10762 L 572.04177,461.59659 L 560.11176,456.73534 C 552.97584,455.74222 543.7173,465.82308 542.33301,465.63247 C 537.76541,465.00351 534.56105,461.88808 532.40354,459.99104 C 507.62467,464.99734 539.27535,454.29268 522.47406,457.8558 C 521.03203,458.97088 515.13728,460.72614 512.54458,461.28206 C 510.65713,461.68675 505.92782,458.39838 502.6151,459.61698 C 501.10519,460.1724 493.82794,462.73428 492.68558,462.06259 C 486.18367,458.2395 488.11838,453.18598 482.75608,458.77205 C 480.75258,459.62837 473.57244,460.30945 472.82657,460.7206 C 472.77389,460.31586 465.79596,459.9614 462.89705,459.74065 C 460.67209,459.57121 455.23874,462.37671 452.96754,462.44149 C 445.04744,462.66741 448.80708,454.42689 443.03804,463.93332 C 442.12994,464.53414 433.84531,466.47524 433.10853,465.85501 C 430.33851,463.52326 425.82705,460.57333 423.17902,458.21198 C 420.86754,456.15075 416.90013,463.38168 413.24951,465.11754 C 410.33809,466.50192 405.20566,461.87558 403.32,460.24184 C 402.53359,449.0244 394.18051,466.35772 393.39048,465.68313 C 387.56571,460.70939 389.93546,457.92729 383.46098,461.197 C 382.59014,460.47152 374.32597,458.37273 373.53147,459.14236 C 371.96619,460.65864 364.41179,461.99696 363.60195,463.01193 C 362.96905,461.96711 356.29096,460.92012 353.67244,459.84228 C 350.69473,458.61661 347.46105,464.06463 343.74293,464.92088 C 318.05513,475.39066 366.04127,446.54859 333.81342,463.87373 C 331.8512,463.97969 325.55303,464.70387 323.88392,464.26401 C 323.71008,464.21819 314.12436,464.33657 313.95441,464.29156 C 312.00013,464.59361 300.86927,464.8028 294.09538,464.53476 C 290.22709,464.38168 287.99703,460.13407 284.16587,460.5188 C 267.70054,462.1723 290.36113,472.84694 274.23636,461.0434 C 261.95212,474.27638 275.99255,458.40793 264.30685,459.74103 C 259.86713,460.24752 258.85889,464.70464 254.37734,465.11516 C 250.50224,465.47013 247.85925,461.96925 244.44783,461.15294 C 242.266,460.63088 237.01926,461.49861 234.51833,461.65068 C 231.25783,462.99719 226.30184,463.99531 224.58883,464.72765 C 227.35578,463.26243 225.61349,461.83198 214.65932,464.37907 C 211.59659,465.09124 208.13189,467.85604 204.7298,467.89938 C 201.27641,467.94336 198.25286,464.55651 194.80029,464.64914 C 177.91433,465.10217 202.34887,475.75349 184.87078,463.1184 C 177.33221,463.51188 181.91576,461.59943 174.94127,460.70103 C 173.39144,464.61039 173.4541,471.22135 165.01177,472.50986 C 155.0385,461.79629 162.53909,460.76023 149.56489,464.9568 C 150.13134,472.91185 139.00274,465.57732 135.80096,467.24998 C 132.19983,469.13126 134.43996,472.34429 131.08275,474.31237 C 130.95525,474.38713 130.84524,474.43652 130.72212,474.50632 L 124.08058,474.61461 C 122.34374,470.02736 126.85224,457.37345 109.17464,466.07208 C 97.25279,465.15325 103.69319,473.56357 96.5527,474.14995 C 91.81191,474.53927 93.93361,469.56611 89.73083,468.60563 C 77.95791,465.91517 86.41652,480.35311 72.480833,465.90463 C 62.934129,481.99768 67.82511,469.99809 56.042248,467.44884 C 47.878078,465.6825 50.246916,473.22495 48.589285,475.84545 L 44.171603,475.91747 C 43.042845,475.39556 41.656317,474.60296 39.934234,473.44762 C 38.612468,473.33369 30.834281,472.75744 29.626306,472.28576 C 27.653548,471.5154 27.228696,468.52039 25.268729,469.36111 C 21.932264,470.79226 21.046319,474.44432 20.159843,476.30897 L 17.575348,476.35111 C 16.902575,475.55658 16.062872,474.30988 14.930749,472.37759 C 11.435994,468.45517 11.233149,474.78209 9.731708,474.12812 C 2.242123,470.8659 10.356264,466.55844 0.024826,475.96558 C -3.503531,468.60311 -8.0607764,466.36501 -13.378484,474.37058 C -21.498493,478.45739 -17.879101,463.06984 -23.355837,472.04803 C -24.32764,473.64114 -25.097281,475.34487 -25.699913,477.05668 L -58.306621,477.58831 C -62.568752,477.65781 -66,479.24755 -66,481.15274 L -66,505.56101 C -66,507.46622 -62.568752,508.94406 -58.306621,508.87456 L 1030.3066,491.12544 C 1034.5688,491.05594 1038,489.46622 1038,487.56101 L 1038,463.15274 C 1038,461.24755 1034.5688,459.76969 1030.3066,459.83919 L 1021.0506,459.9901 C 1020.8252,453.09519 1019.0462,444.17605 1017.9551,450.14 C 1016.2957,459.21041 1018.73,449.89179 1014.9799,448.32125 C 1013.2144,447.58187 1011.6373,450.03309 1009.5705,450.66629 C 995.6767,454.923 1004.4561,446.77655 988.2635,455.31244 C 985.4382,454.88312 982.61411,454.44254 979.78881,454.01322 C 977.01863,452.59774 975.41888,450.47271 971.49439,449.7691 C 968.60177,449.25048 965.21283,451.3348 962.26829,450.87331 C 944.03155,448.01521 953.01532,439.2943 936.12282,451.59513 C 920.09957,441.68012 936.0342,448.40432 919.65324,454.76532 C 914.2476,456.86443 916.74048,448.29999 909.72376,448.62685 C 879.14601,450.05131 893.79182,452.9641 899.79427,453.77261 C 898.20687,453.5923 894.14944,453.32491 889.86479,452.88669 C 874.59051,444.35074 895.25787,449.68831 879.93532,451.34251 C 877.24377,451.63308 872.49474,449.61369 870.00585,450.17448 C 856.90696,453.12593 878.33944,458.11968 860.07637,450.21547 C 850.25637,469.17981 863.84473,446.6365 850.14688,448.42949 C 839.922,449.76788 840.11541,452.96891 840.2174,453.17224 C 839.94462,453.06661 835.31681,452.23914 830.28792,450.05634 C 812.17369,443.97916 840.46525,449.69439 820.35844,453.24079 C 816.95985,453.84024 813.93495,450.69394 810.42897,450.3667 C 797.80439,449.18834 819.90933,453.44414 800.49948,448.02993 C 796.978,448.40983 794.09148,448.77917 790.57,449.15905 C 786.92355,450.66301 785.40725,453.13138 780.64052,453.66001 C 776.73,454.09365 774.57018,451.02325 770.71105,451.55161 C 765.8936,452.21117 765.76895,456.52299 760.78157,456.53618 C 755.46608,456.55019 755.12413,452.92592 750.85208,451.57987 C 747.77603,450.61063 744.43487,450.3244 740.92261,449.69984 C 715.31471,468.69258 765.19836,442.04348 730.99313,458.06967 C 727.76974,459.06572 721.31468,455.77036 721.06365,455.65231 C 716.69431,453.59791 717.25807,448.78538 711.13417,447.96899 C 710.38535,447.86915 701.8381,447.96792 701.20468,448.00998 z"
       sodipodi:nodetypes="ccscsscssccsccsssccsscssscscscsccscsscsssccsssccccsscccsscscccsscccsccsccccccccccsssccsscssccsscsccssccssssccssc" />
  </g>
  <g
     id="g2746"
     transform="matrix(-1,0,0,-1,1036,880.0469)">
    <path
       transform="matrix(0.9587741,0,0,1.1931559,23.245973,-79.915403)"
       style="opacity:0.43076926;fill:url(#radialGradient2756);fill-opacity:1;stroke-width:0.39999998;stroke-linecap:round;stroke-linejoin:round;stroke-miterlimit:4;stroke-dasharray:none;stroke-opacity:0.11111109;filter:url(#filter2739)"
       id="path2748"
       sodipodi:nodetypes="ccscsscsscsccsssccsscssscscscsccscsscsssccsssccccsscccsscscccsscccsccsccccccsssccsscssccsscsccssccssssccssccccccccccc"
       d="M 712.0384,449.97245 C 705.98601,450.3519 706.99089,458.61472 702.31733,462.0024 C 688.89046,466.86998 700.57225,457.58311 692.59627,456.17873 C 683.16962,454.51891 682.49606,472.41183 673.15414,456.83857 C 661.15734,453.24333 662.11753,459.17717 643.99094,462.30564 C 640.82826,462.85148 637.15824,458.06923 634.26988,457.13136 C 621.47301,452.97612 640.03154,482.54658 624.54881,459.98873 C 622.78422,460.52696 616.3398,462.37378 614.82775,461.61009 C 611.43739,459.89773 609.41542,453.79923 605.10668,454.51137 C 597.83124,455.71383 587.10055,473.14665 566.22242,455.93595 C 559.20678,454.49243 557.86085,468.68032 556.50136,468.40162 C 552.01592,467.48208 548.89628,463.48569 546.78029,461.03282 C 522.44635,466.66863 553.55145,453.87371 537.05923,457.90804 C 535.64273,459.27402 529.88269,461.36313 527.33816,461.99293 C 525.48583,462.45141 520.86853,458.1967 517.6171,459.64198 C 516.13515,460.30071 509.01545,463.3792 507.896,462.50179 C 501.52562,457.50875 503.44181,451.22459 498.17494,458.11488 C 496.20868,459.13924 489.18604,459.84172 488.45387,460.33942 C 488.40289,459.82818 481.57528,459.23292 478.73281,458.87663 C 476.55124,458.60318 471.23898,462.02977 469.01174,462.05018 C 461.24522,462.12136 464.96251,451.8696 459.29068,463.68482 C 458.39907,464.41718 450.29083,466.68518 449.56961,465.88413 C 446.85843,462.87283 442.44158,459.07215 439.84855,456.02902 C 437.5854,453.37304 433.71014,462.40472 430.12749,464.49346 C 427.27005,466.15938 422.25245,460.22443 420.40642,458.11788 C 419.64787,443.98403 411.45876,465.57717 410.68536,464.70718 C 404.98405,458.29379 407.31701,454.88026 400.96429,458.82636 C 400.11166,457.8907 392.02328,455.07501 391.24323,456.02285 C 389.70625,457.89042 382.31793,459.41381 381.52216,460.67039 C 380.90345,459.33905 374.36707,457.87718 371.8011,456.45397 C 368.88334,454.83564 365.72729,461.63062 362.08003,462.61359 C 336.86353,475.1585 383.98055,440.00132 352.35897,460.98376 C 350.4341,461.06935 344.27441,461.84313 342.6379,461.24922 C 342.46745,461.18736 323.36241,461.13916 323.19577,461.07842 C 321.27812,461.4116 320.12097,461.43119 313.47471,460.93584 C 309.67711,460.6528 307.52522,455.26422 303.75364,455.67801 C 287.48411,457.46299 310.12974,471.40974 294.03258,456.42696 C 281.51824,473.17325 296.06283,453.57698 284.31151,455.23392 C 279.83894,455.86455 279.11039,461.54768 274.59045,462.06884 C 270.67954,462.51978 268.32064,458.14333 264.86938,457.12949 C 262.66173,456.48097 257.67661,457.53224 255.14832,457.73154 C 251.8347,459.4503 247.16973,460.67004 245.42724,461.60606 C 248.05262,459.89698 246.80854,457.99227 235.70617,461.25904 C 232.60099,462.17272 229.42816,465.65664 225.98511,465.72748 C 222.49041,465.7994 219.75779,461.55386 216.26404,461.68624 C 199.18866,462.33324 224.34352,476.16358 206.54298,460.44903 C 198.96262,460.94411 203.81853,458.76041 196.82191,457.61833 C 195.19888,462.59197 195.52404,470.97554 187.10085,472.54612 C 177.14672,459.00683 190.1932,457.82896 177.37978,462.92416 C 177.92657,472.95519 170.80531,463.52449 167.65872,465.57174 C 164.12333,467.87195 161.22558,471.92668 157.93765,474.33422 C 157.81284,474.42561 148.33711,474.48552 148.21659,474.5708 L 138.49552,474.57144 C 136.86474,468.70271 145.94799,452.77253 128.77446,463.23779 C 117.18149,461.76713 125.98313,472.33379 119.05339,472.87094 C 114.45456,473.22741 113.39734,466.89716 109.33233,465.55898 C 97.94688,461.81094 106.3381,480.06585 93.177114,461.18872 C 84.303631,480.84422 89.153551,465.79157 77.749538,462.23127 C 69.84029,459.76202 72.3296,469.16424 70.769188,472.37383 L 66.47148,472.3474 C 65.379437,471.65581 64.040634,470.61346 62.381065,469.10115 C 61.093728,468.92392 53.509576,468.00567 52.334828,467.37976 C 50.416054,466.35744 50.053334,462.53658 48.142492,463.54508 C 44.886407,465.26358 44.080223,469.78661 43.238511,472.09045 L 40.70388,472.0902 C 40.056065,471.06712 39.252165,469.46557 38.171838,466.98716 C 34.785522,461.94788 34.610818,469.87923 33.13504,469.02898 C 25.77016,464.78579 33.830297,459.45374 23.649197,471.10705 C 20.194403,461.77043 15.647512,458.9239 10.352199,468.9409 C 2.243323,474.02109 5.8836199,454.68223 0.40667414,465.93627 C -0.56553622,467.93397 -1.3382281,470.07245 -1.9439703,472.22284 L -34.499577,472.61516 C -38.758195,472.66443 -42.191611,474.63432 -42.197614,477.03271 L 1049,476.2325 C 1049,473.80936 1045.5998,471.85859 1041.3763,471.85859 L 1032.2041,471.85859 C 1031.9808,463.08457 1030.2179,451.70378 1029.1367,459.26647 C 1027.4923,470.76834 1029.9046,458.96684 1026.1885,456.89157 C 1024.4389,455.91459 1022.8761,458.99947 1020.8281,459.76196 C 1007.0601,464.88779 1015.7599,454.70871 999.71397,465.22936 C 996.91426,464.62475 994.11579,464.00582 991.31609,463.4012 C 988.57099,461.54346 986.98573,458.80756 983.09679,457.83128 C 980.23038,457.11169 976.87214,459.69236 973.95427,459.04436 C 955.88272,455.0311 964.78511,444.12564 948.04562,459.42025 C 932.16751,446.47748 947.95873,455.36013 931.72615,463.11075 C 926.36947,465.66842 923.13392,454.82736 916.18076,455.09758 C 885.87999,456.2752 900.51161,460.28357 906.4597,461.43635 C 904.88668,461.17408 900.98447,460.74987 896.73863,460.10368 C 881.6027,448.9304 902.20133,456.14762 887.01757,457.9338 C 884.3504,458.24755 879.76286,455.58068 877.2965,456.24231 C 864.31627,459.72451 885.67309,466.5203 867.57544,456.08855 C 857.8444,480.00486 871.42814,451.61475 857.85437,453.61113 C 847.72211,455.10134 848.03224,459.17661 848.13331,459.43733 C 847.863,459.29733 843.39557,458.14894 838.41224,455.26844 C 820.46209,447.16349 848.61586,455.01912 828.69118,459.11271 C 825.32338,459.80464 822.44433,455.74026 818.97011,455.25136 C 806.45989,453.49086 828.48308,459.36202 809.24905,452.07342 C 805.75947,452.48357 803.01756,452.89346 799.52798,453.30359 C 795.91455,455.1408 794.53047,458.24878 789.80692,458.82225 C 785.93182,459.29271 783.91003,455.34279 780.08585,455.93477 C 775.31204,456.67375 775.30701,462.15518 770.36479,462.06852 C 765.09745,461.97614 764.87707,457.35947 760.64372,455.5589 C 757.59553,454.26239 754.40311,453.82906 750.92266,452.96188 C 725.54671,476.58691 775.09699,443.72745 741.20159,463.4012 C 738.00768,464.60073 731.72884,460.2593 731.48053,460.10379 C 727.15903,457.39754 727.81541,451.30004 721.75946,450.12888 C 721.01905,449.9857 712.66464,449.93307 712.0384,449.97245 z M 332.91684,461.07842 C 343.08066,459.31555 299.26333,448.85778 332.91684,461.07842 z M 663.43307,470.54336 C 663.61146,471.00309 682.71474,471.25446 682.8752,471.66918 L 653.71201,471.66312 C 654.01602,471.29072 663.11562,470.94365 663.43307,470.54336 z M 585.66455,470.42805 C 586.08545,470.36777 595.10976,470.75663 595.38562,471.3856 L 575.94349,471.37133 C 576.47771,470.77347 585.35713,470.47208 585.66455,470.42805 z" />
    <path
       style="opacity:1;fill:url(#linearGradient2758);fill-opacity:1;stroke:url(#radialGradient2760);stroke-width:1;stroke-linecap:round;stroke-linejoin:round;stroke-miterlimit:4;stroke-dasharray:none;stroke-opacity:1"
       id="path2750"
       d="M 709.01755,465.51875 C 703.12748,465.82554 704.01448,472.33764 699.46582,475.01631 C 686.39012,478.88715 697.68683,471.54927 689.9141,470.46231 C 680.72454,469.17723 679.92639,483.26906 670.81065,471.01309 C 659.10565,468.21261 659.82854,472.82638 642.15546,475.35214 C 639.0703,475.79306 635.42289,472.01219 632.60373,471.28176 C 620.10975,468.04467 638.18312,491.33944 623.052,473.59234 C 621.3291,474.02477 614.97783,475.49255 613.50028,474.8954 C 610.18692,473.55632 600.49509,473.87882 596.32472,474.70634 L 584.76844,476.99944 L 573.29229,471.94368 C 566.42785,470.83422 557.52153,480.76412 556.18991,480.55094 C 551.79607,479.84751 548.71362,476.67984 546.63819,474.74762 C 522.80199,479.34992 553.24857,469.1613 537.08646,472.45049 C 535.69929,473.54205 530.0288,475.2012 527.53473,475.71485 C 525.71909,476.08877 521.1697,472.72329 517.983,473.88788 C 516.53054,474.41868 509.53014,476.86191 508.43124,476.17159 C 502.17668,472.24249 504.03779,467.22052 498.87949,472.71916 C 496.95221,473.54281 490.04523,474.10683 489.32773,474.50582 C 489.27706,474.10022 482.56459,473.63199 479.77597,473.36397 C 477.63565,473.15825 472.40901,475.87517 470.22421,475.90292 C 462.60542,475.99971 466.22203,467.82048 460.67246,477.23285 C 459.79891,477.81887 451.82946,479.62489 451.12071,478.99265 C 448.45607,476.61574 444.11624,473.59225 441.56895,471.18772 C 439.34541,469.08881 435.52893,476.25505 432.01719,477.93139 C 429.21653,479.2683 424.27936,474.55828 422.46543,472.8938 C 421.70894,461.66353 413.67364,478.86066 412.91367,478.17319 C 407.31049,473.10448 409.59009,470.36102 403.36192,473.52517 C 402.52421,472.78549 394.57444,470.55196 393.81016,471.30863 C 392.30443,472.79939 385.03743,474.01454 384.2584,475.01631 C 383.64958,473.96117 377.22554,472.8053 374.70664,471.68477 C 371.84221,470.41055 368.73155,475.80584 365.15488,476.60147 C 340.44434,486.65243 386.60492,458.59274 355.60313,475.39243 C 353.71556,475.46639 347.65699,476.08789 346.05138,475.62081 C 345.88415,475.57216 336.66311,475.53425 336.49962,475.48647 C 334.61969,475.75666 323.91229,475.78436 317.3961,475.40588 C 313.67497,475.18973 311.52975,470.90576 307.84434,471.22803 C 292.00541,472.61307 313.80391,483.65718 298.29259,471.59073 C 286.47568,484.62343 299.98196,468.9839 288.74083,470.12647 C 284.47001,470.56057 283.50013,475.00125 279.18907,475.3387 C 275.46139,475.63049 272.91895,472.08652 269.63731,471.21459 C 267.53849,470.65696 262.49135,471.43914 260.08557,471.55044 C 256.94911,472.84379 252.18166,473.7611 250.53382,474.46551 C 253.19551,473.0454 251.5195,471.58655 240.98206,473.95504 C 238.03585,474.61727 234.70296,477.32558 231.4303,477.31345 C 228.10829,477.30113 225.19976,473.86498 221.87854,473.90132 C 205.63498,474.07903 229.13995,485.12874 212.32678,472.20868 C 205.07501,472.47925 209.48418,470.64153 202.77503,469.62942 C 201.28416,473.51351 201.34443,480.12549 193.22328,481.27636 C 183.62943,470.40018 190.84467,469.48641 178.36405,473.47144 C 178.90895,481.43573 168.20372,473.91976 165.12375,475.54021 C 161.65962,477.36278 163.81453,480.61233 160.58504,482.52568 C 160.46239,482.59836 160.35656,482.64595 160.23813,482.71375 L 153.84925,482.71375 C 152.17849,478.09818 156.51547,465.51778 139.51039,473.92819 C 128.04209,472.81498 134.23747,481.33031 127.36863,481.80027 C 122.8082,482.11229 124.84918,477.17372 120.80629,476.14472 C 109.48125,473.26231 117.61807,487.83816 104.21254,473.16247 C 95.029026,489.09987 99.733937,477.18002 88.399336,474.43866 C 80.54576,472.53921 82.824479,480.12028 81.22991,482.71375 L 76.980292,482.71375 C 75.894476,482.17343 74.560696,481.35823 72.904127,480.17481 C 71.632646,480.03933 64.150368,479.33626 62.988349,478.84488 C 61.090641,478.04236 60.681952,475.04042 58.796549,475.84919 C 55.587015,477.22594 54.734774,480.86355 53.882023,482.71375 L 51.395851,482.71375 C 50.748673,481.90825 49.940915,480.64786 48.851862,478.69711 C 45.490059,474.71771 45.294931,481.04133 43.85061,480.36288 C 36.645955,476.97854 44.451406,472.80338 34.513012,482.04207 C 31.118886,474.62207 26.735014,472.30967 21.61961,480.22854 C 13.808515,484.18296 17.290213,468.85442 12.021831,477.74332 C 11.086999,479.32058 10.346637,481.01176 9.7669316,482.71375 L -21.599304,482.71375 C -25.699289,482.71375 -29,484.24755 -29,486.15274 L -29,490.56101 C -29,492.46622 -25.699289,494 -21.599304,494 L 1025.5993,494 C 1029.6993,494 1033,492.46622 1033,490.56101 L 1033,486.15274 C 1033,484.24755 1029.6993,482.71375 1025.5993,482.71375 L 1016.6954,482.71375 C 1016.4786,475.81517 1014.7673,466.86702 1013.7177,472.81318 C 1012.1214,481.85654 1014.4631,472.57761 1010.8557,470.94592 C 1009.1573,470.17776 1007.6402,472.60326 1005.6521,473.20277 C 992.28686,477.23295 1000.7322,469.22964 985.15561,477.50152 C 982.43779,477.02613 979.72118,476.53951 977.00337,476.06412 C 974.33857,474.60348 972.79968,472.45237 969.02449,471.68477 C 966.24192,471.11899 962.98191,473.14805 960.14939,472.63855 C 942.60644,469.48312 951.24843,460.90868 934.99858,472.93409 C 919.58491,462.75783 934.91333,469.74183 919.15556,475.83575 C 913.95557,477.84673 916.35361,469.32293 909.60383,469.53539 C 880.18937,470.4613 894.278,473.61288 900.0521,474.51926 C 898.52509,474.31306 894.62202,473.97952 890.50037,473.47144 C 875.80718,464.68645 895.68828,470.36099 880.94865,471.76537 C 878.3595,472.01205 873.79114,469.91523 871.39693,470.43544 C 858.79637,473.17333 879.41348,478.51652 861.8452,470.31454 C 852.39879,489.11877 865.4702,466.79701 852.29347,468.36667 C 842.45758,469.53835 842.64363,472.74253 842.74174,472.94752 C 842.47934,472.83745 838.02758,471.93452 833.19001,469.66973 C 815.76491,463.29721 842.98016,469.47371 823.63828,472.69229 C 820.36899,473.23632 817.45916,470.04071 814.08656,469.6563 C 801.94227,468.27211 823.20626,472.88831 804.53483,467.15764 C 801.14732,467.48012 798.37061,467.8024 794.9831,468.12487 C 791.47537,469.56937 790.01676,472.01302 785.43137,472.46393 C 781.66962,472.83381 779.59197,469.7282 775.87965,470.19364 C 771.24547,470.77465 771.12557,475.08444 766.32792,475.01631 C 761.21465,474.94366 760.88571,471.31381 756.77619,469.89811 C 753.81716,468.87872 750.60311,468.53801 747.22447,467.85619 C 722.59078,486.43141 770.57668,460.59563 737.67274,476.06412 C 734.57198,477.00762 728.36249,473.60701 728.12101,473.48487 C 723.9179,471.35923 724.46021,466.55589 718.56928,465.63966 C 717.84895,465.52761 709.62687,465.48702 709.01755,465.51875 z"
       sodipodi:nodetypes="ccscsscssccsccsssccsscssscscscsccscsscsssccsssccccsscccsscscccsscccsccsccccccccccsssccsscssccsscsccssccssssccssc" />
  </g>
  <g
     transform="matrix(1,0,0,-1,34,1305.8337)"
     id="g2752">
    <path
       sodipodi:nodetypes="ccscsscssccsccsssccsscssscscscsccscsscsssccsssccccsscccsscscccsscccsccsccccccccccsssccsscssccsscsccssccssssccssc"
       d="M 701.20468,448.00998 C 695.08167,448.4166 696.00375,454.91367 691.2752,457.66943 C 677.68238,461.76189 689.42586,454.23254 681.34573,453.27733 C 671.79274,452.148 670.96303,466.25336 661.48678,454.15189 C 649.31887,451.5498 650.07035,456.15132 631.69833,458.97662 C 628.49116,459.46983 624.6995,455.75079 621.76885,455.06814 C 608.78076,452.04281 627.56889,475.03125 611.83937,457.54061 C 610.04833,458.00224 603.44588,459.57767 601.9099,459.00556 C 598.4655,457.72264 588.39038,458.20941 584.05508,459.10762 L 572.04177,461.59659 L 560.11176,456.73534 C 552.97584,455.74222 543.7173,465.82308 542.33301,465.63247 C 537.76541,465.00351 534.56105,461.88808 532.40354,459.99104 C 507.62467,464.99734 539.27535,454.29268 522.47406,457.8558 C 521.03203,458.97088 515.13728,460.72614 512.54458,461.28206 C 510.65713,461.68675 505.92782,458.39838 502.6151,459.61698 C 501.10519,460.1724 493.82794,462.73428 492.68558,462.06259 C 486.18367,458.2395 488.11838,453.18598 482.75608,458.77205 C 480.75258,459.62837 473.57244,460.30945 472.82657,460.7206 C 472.77389,460.31586 465.79596,459.9614 462.89705,459.74065 C 460.67209,459.57121 455.23874,462.37671 452.96754,462.44149 C 445.04744,462.66741 448.80708,454.42689 443.03804,463.93332 C 442.12994,464.53414 433.84531,466.47524 433.10853,465.85501 C 430.33851,463.52326 425.82705,460.57333 423.17902,458.21198 C 420.86754,456.15075 416.90013,463.38168 413.24951,465.11754 C 410.33809,466.50192 405.20566,461.87558 403.32,460.24184 C 402.53359,449.0244 394.18051,466.35772 393.39048,465.68313 C 387.56571,460.70939 389.93546,457.92729 383.46098,461.197 C 382.59014,460.47152 374.32597,458.37273 373.53147,459.14236 C 371.96619,460.65864 364.41179,461.99696 363.60195,463.01193 C 362.96905,461.96711 356.29096,460.92012 353.67244,459.84228 C 350.69473,458.61661 347.46105,464.06463 343.74293,464.92088 C 318.05513,475.39066 366.04127,446.54859 333.81342,463.87373 C 331.8512,463.97969 325.55303,464.70387 323.88392,464.26401 C 323.71008,464.21819 314.12436,464.33657 313.95441,464.29156 C 312.00013,464.59361 300.86927,464.8028 294.09538,464.53476 C 290.22709,464.38168 287.99703,460.13407 284.16587,460.5188 C 267.70054,462.1723 290.36113,472.84694 274.23636,461.0434 C 261.95212,474.27638 275.99255,458.40793 264.30685,459.74103 C 259.86713,460.24752 258.85889,464.70464 254.37734,465.11516 C 250.50224,465.47013 247.85925,461.96925 244.44783,461.15294 C 242.266,460.63088 237.01926,461.49861 234.51833,461.65068 C 231.25783,462.99719 226.30184,463.99531 224.58883,464.72765 C 227.35578,463.26243 225.61349,461.83198 214.65932,464.37907 C 211.59659,465.09124 208.13189,467.85604 204.7298,467.89938 C 201.27641,467.94336 198.25286,464.55651 194.80029,464.64914 C 177.91433,465.10217 202.34887,475.75349 184.87078,463.1184 C 177.33221,463.51188 181.91576,461.59943 174.94127,460.70103 C 173.39144,464.61039 173.4541,471.22135 165.01177,472.50986 C 155.0385,461.79629 162.53909,460.76023 149.56489,464.9568 C 150.13134,472.91185 139.00274,465.57732 135.80096,467.24998 C 132.19983,469.13126 134.43996,472.34429 131.08275,474.31237 C 130.95525,474.38713 130.84524,474.43652 130.72212,474.50632 L 124.08058,474.61461 C 122.34374,470.02736 126.85224,457.37345 109.17464,466.07208 C 97.25279,465.15325 103.69319,473.56357 96.5527,474.14995 C 91.81191,474.53927 93.93361,469.56611 89.73083,468.60563 C 77.95791,465.91517 86.41652,480.35311 72.480833,465.90463 C 62.934129,481.99768 67.82511,469.99809 56.042248,467.44884 C 47.878078,465.6825 50.246916,473.22495 48.589285,475.84545 L 44.171603,475.91747 C 43.042845,475.39556 41.656317,474.60296 39.934234,473.44762 C 38.612468,473.33369 30.834281,472.75744 29.626306,472.28576 C 27.653548,471.5154 27.228696,468.52039 25.268729,469.36111 C 21.932264,470.79226 21.046319,474.44432 20.159843,476.30897 L 17.575348,476.35111 C 16.902575,475.55658 16.062872,474.30988 14.930749,472.37759 C 11.435994,468.45517 11.233149,474.78209 9.731708,474.12812 C 2.242123,470.8659 10.356264,466.55844 0.024826,475.96558 C -3.503531,468.60311 -8.0607764,466.36501 -13.378484,474.37058 C -21.498493,478.45739 -17.879101,463.06984 -23.355837,472.04803 C -24.32764,473.64114 -25.097281,475.34487 -25.699913,477.05668 L -58.306621,477.58831 C -62.568752,477.65781 -66,479.24755 -66,481.15274 L -66,505.56101 C -66,507.46622 -62.568752,508.94406 -58.306621,508.87456 L 1030.3066,491.12544 C 1034.5688,491.05594 1038,489.46622 1038,487.56101 L 1038,463.15274 C 1038,461.24755 1034.5688,459.76969 1030.3066,459.83919 L 1021.0506,459.9901 C 1020.8252,453.09519 1019.0462,444.17605 1017.9551,450.14 C 1016.2957,459.21041 1018.73,449.89179 1014.9799,448.32125 C 1013.2144,447.58187 1011.6373,450.03309 1009.5705,450.66629 C 995.6767,454.923 1004.4561,446.77655 988.2635,455.31244 C 985.4382,454.88312 982.61411,454.44254 979.78881,454.01322 C 977.01863,452.59774 975.41888,450.47271 971.49439,449.7691 C 968.60177,449.25048 965.21283,451.3348 962.26829,450.87331 C 944.03155,448.01521 953.01532,439.2943 936.12282,451.59513 C 920.09957,441.68012 936.0342,448.40432 919.65324,454.76532 C 914.2476,456.86443 916.74048,448.29999 909.72376,448.62685 C 879.14601,450.05131 893.79182,452.9641 899.79427,453.77261 C 898.20687,453.5923 894.14944,453.32491 889.86479,452.88669 C 874.59051,444.35074 895.25787,449.68831 879.93532,451.34251 C 877.24377,451.63308 872.49474,449.61369 870.00585,450.17448 C 856.90696,453.12593 878.33944,458.11968 860.07637,450.21547 C 850.25637,469.17981 863.84473,446.6365 850.14688,448.42949 C 839.922,449.76788 840.11541,452.96891 840.2174,453.17224 C 839.94462,453.06661 835.31681,452.23914 830.28792,450.05634 C 812.17369,443.97916 840.46525,449.69439 820.35844,453.24079 C 816.95985,453.84024 813.93495,450.69394 810.42897,450.3667 C 797.80439,449.18834 819.90933,453.44414 800.49948,448.02993 C 796.978,448.40983 794.09148,448.77917 790.57,449.15905 C 786.92355,450.66301 785.40725,453.13138 780.64052,453.66001 C 776.73,454.09365 774.57018,451.02325 770.71105,451.55161 C 765.8936,452.21117 765.76895,456.52299 760.78157,456.53618 C 755.46608,456.55019 755.12413,452.92592 750.85208,451.57987 C 747.77603,450.61063 744.43487,450.3244 740.92261,449.69984 C 715.31471,468.69258 765.19836,442.04348 730.99313,458.06967 C 727.76974,459.06572 721.31468,455.77036 721.06365,455.65231 C 716.69431,453.59791 717.25807,448.78538 711.13417,447.96899 C 710.38535,447.86915 701.8381,447.96792 701.20468,448.00998 z"
       id="path2754"
       style="opacity:1;fill:#fefefe;fill-opacity:1;stroke-width:0.39999998;stroke-linecap:round;stroke-linejoin:round;stroke-miterlimit:4;stroke-dasharray:none;stroke-opacity:0.11111109" />
  </g>
</svg>
